<svg width="457" height="284" viewBox="0 0 457 284" fill="none" xmlns="http://www.w3.org/2000/svg">
<mask id="mask0" mask-type="alpha" maskUnits="userSpaceOnUse" x="17" y="17" width="423" height="256">
<path d="M17.6094 191.401H39.4556C39.4556 191.401 53.1039 190.082 62.3496 199.313C71.5952 208.544 102.414 239.315 102.414 239.315H163.612C163.612 239.315 175.059 238.875 182.103 245.908C189.147 252.941 208.959 272.722 208.959 272.722H308.02L350.946 229.864C350.946 229.864 365.255 213.38 389.91 213.38C414.565 213.38 439.388 213.38 439.388 213.38V17.5831H17.6094" fill="white"/>
</mask>
<g mask="url(#mask0)">
<path d="M325.146 72.9699H370.934C370.934 72.9699 387.664 72.0907 396.47 80.8822C405.275 89.6738 426.849 111.213 426.849 111.213C426.849 111.213 438.736 121.323 438.736 136.269C438.736 151.215 438.736 195.172 438.736 195.172H324.266L325.146 72.9699Z" fill="#F0F6FF"/>
<path d="M293.737 17.8556H244.137V144.181H293.737V17.8556Z" fill="white"/>
<path d="M258 138L258 18L254 18L254 138L258 138Z" fill="#B9D8FF"/>
<path d="M271 138L271 18L267 18L267 138L271 138Z" fill="#B9D8FF"/>
<path d="M284 138L284 18L280 18L280 138L284 138Z" fill="#B9D8FF"/>
<path d="M331.308 17.8556H293.312V144.181H331.308V17.8556Z" fill="#7DB3FD"/>
<path d="M438.734 162.644H390.305V213.635H438.734V162.644Z" fill="#B9D8FF"/>
<path d="M422.443 134.071H403.512V154.292H422.443V134.071Z" fill="#B9D8FF"/>
<path d="M438.734 185.502H394.707V141.544H420.084C430.387 141.544 438.734 149.878 438.734 160.164V185.502Z" fill="#B9D8FF"/>
<path d="M370.053 95.8278H360.367V86.1571L365.148 82.746L370.053 86.1571V95.8278Z" fill="#7DB3FD"/>
<path d="M364.99 91.432C350.4 91.432 338.574 103.239 338.574 117.807H391.407C391.407 103.239 379.581 91.432 364.99 91.432Z" fill="#005AFF"/>
<path d="M371.222 113.683H321.621V240.009H371.222V113.683Z" fill="white"/>
<path d="M331.844 232.352V125.139C331.844 124.075 332.707 123.214 333.772 123.214C334.838 123.214 335.701 124.075 335.701 125.139V232.352C335.701 233.415 334.838 234.277 333.772 234.277C332.707 234.277 331.844 233.415 331.844 232.352Z" fill="#B9D8FF"/>
<path d="M344.508 232.352V125.139C344.508 124.075 345.371 123.214 346.436 123.214C347.502 123.214 348.365 124.075 348.365 125.139V232.352C348.365 233.415 347.502 234.277 346.436 234.277C345.371 234.277 344.508 233.415 344.508 232.352Z" fill="#B9D8FF"/>
<path d="M357.176 232.352V125.139C357.176 124.075 358.039 123.214 359.104 123.214C360.17 123.214 361.033 124.075 361.033 125.139V232.352C361.033 233.415 360.17 234.277 359.104 234.277C358.039 234.277 357.176 233.415 357.176 232.352Z" fill="#B9D8FF"/>
<path d="M408.796 113.683H370.801V240.009H408.796V113.683Z" fill="#7DB3FD"/>
<path d="M381.016 232.352V125.139C381.016 124.075 381.879 123.214 382.944 123.214C384.009 123.214 384.872 124.075 384.872 125.139V232.352C384.872 233.415 384.009 234.277 382.944 234.277C381.879 234.277 381.016 233.415 381.016 232.352Z" fill="#005AEB"/>
<path d="M393.688 232.352V125.139C393.688 124.075 394.55 123.214 395.616 123.214C396.681 123.214 397.544 124.075 397.544 125.139V232.352C397.544 233.415 396.681 234.277 395.616 234.277C394.55 234.277 393.688 233.415 393.688 232.352Z" fill="#005AEB"/>
<path d="M61.8629 87.0364H55.9017C34.8832 87.0364 17.8359 104.048 17.8359 125.042V173.193H61.8629V87.0364Z" fill="#F0F6FF"/>
<path d="M244.134 44.8369H98.1673C77.1488 44.8369 60.1016 61.8485 60.1016 82.8427V173.193H244.134V44.8369Z" fill="#F0F6FF"/>
<path d="M17.8369 150.344H33.4753L53.0937 130.757C53.0937 130.757 63.4225 120.444 75.8116 120.444C88.2008 120.444 130.537 120.444 130.537 120.444V220.668H17.8281V150.344H17.8369Z" fill="#B9D8FF"/>
<path d="M186.899 69.4532H129.664V292.758H186.899V69.4532Z" fill="white"/>
<path d="M244.134 69.4532H186.898V292.758H244.134V69.4532Z" fill="#7DB3FD"/>
<path d="M186.898 60.6616H138.469V69.4532H186.898V60.6616Z" fill="white"/>
<path d="M235.328 60.6616H186.898V69.4532H235.328V60.6616Z" fill="#7DB3FD"/>
<path d="M197.879 22.858H175.39L138.469 60.6617H235.328L197.879 22.858Z" fill="#7DB3FD"/>
<path d="M235.328 60.6616H186.898L210.937 36.0453L235.328 60.6616Z" fill="#7DB3FD"/>
<path d="M186.898 60.6616H138.469L162.507 36.0453L186.898 60.6616Z" fill="white"/>
<path d="M177.39 60.6617H147.98L162.58 45.7161L177.39 60.6617Z" fill="#7DB3FD"/>
<path d="M225.82 60.6617H196.41L211.009 45.7161L225.82 60.6617Z" fill="#005AEB"/>
<path d="M395.588 206.601C394.294 196.684 385.63 189.018 375.336 189.018C370.141 189.018 365.404 190.97 361.82 194.179C358.518 187.48 351.623 182.864 343.637 182.864C332.454 182.864 323.384 191.919 323.384 203.085C323.384 204.632 323.569 206.144 323.895 207.595C313.707 208.658 305.773 217.257 305.773 227.701C305.773 238.866 314.843 247.921 326.026 247.921H395.588V206.601Z" fill="#005AEB"/>
<path d="M321.621 134.511H186.898V255.834H321.621V134.511Z" fill="#7DB3FD"/>
<path d="M149.919 85.278H141.113V94.0695H149.919V85.278Z" fill="#B9D8FF"/>
<path d="M172.813 85.278H164.008V94.0695H172.813V85.278Z" fill="#B9D8FF"/>
<path d="M149.919 107.257H141.113V116.048H149.919V107.257Z" fill="#B9D8FF"/>
<path d="M172.813 107.257H164.008V116.048H172.813V107.257Z" fill="#B9D8FF"/>
<path d="M149.919 129.236H141.113V138.027H149.919V129.236Z" fill="#B9D8FF"/>
<path d="M172.813 129.236H164.008V138.027H172.813V129.236Z" fill="#B9D8FF"/>
<path d="M149.919 151.214H141.113V160.006H149.919V151.214Z" fill="#B9D8FF"/>
<path d="M172.813 151.214H164.008V160.006H172.813V151.214Z" fill="#B9D8FF"/>
<path d="M149.919 173.193H141.113V181.985H149.919V173.193Z" fill="#B9D8FF"/>
<path d="M172.813 173.193H164.008V181.985H172.813V173.193Z" fill="#B9D8FF"/>
<path d="M303.133 160.006V151.215H294.327V160.006H303.133Z" fill="#B9D8FF"/>
<path d="M303.133 182.864V174.073H294.327V182.864H303.133Z" fill="#B9D8FF"/>
<path d="M281.117 160.006V151.215H272.312V160.006H281.117Z" fill="#B9D8FF"/>
<path d="M281.117 182.864V174.073H272.312V182.864H281.117Z" fill="#B9D8FF"/>
<path d="M259.105 160.006V151.215H250.3V160.006H259.105Z" fill="#B9D8FF"/>
<path d="M259.105 182.864V174.073H250.3V182.864H259.105Z" fill="#B9D8FF"/>
<path d="M237.09 160.006V151.215H228.285V160.006H237.09Z" fill="#B9D8FF"/>
<path d="M237.09 182.864V174.073H228.285V182.864H237.09Z" fill="#B9D8FF"/>
<path d="M215.078 160.006V151.215H206.273V160.006H215.078Z" fill="#B9D8FF"/>
<path d="M215.078 182.864V174.073H206.273V182.864H215.078Z" fill="#B9D8FF"/>
<path d="M260.504 247.772H262.961L268.411 240.15L268.543 240.018H265.954L260.504 247.772Z" fill="white"/>
<path d="M284.371 240.009L284.503 240.141L289.954 247.763H292.41L286.96 240H284.371V240.009Z" fill="white"/>
<path d="M277 238.242H279.73V208.289H277V238.242Z" fill="#B9D8FF"/>
<path d="M293.499 208.289H305.774C304.277 204.887 302.094 201.616 299.232 198.9C293.508 193.317 286.006 190.592 278.504 190.592C282.598 190.592 286.825 193.449 289.96 198.9C291.597 201.616 292.681 204.887 293.499 208.289Z" fill="#FFD500"/>
<path d="M278.504 190.592V208.289H293.499C292.681 204.887 291.589 201.616 289.951 198.9C286.825 193.317 282.73 190.592 278.504 190.592Z" fill="#FFEA94"/>
<path d="M257.777 198.891C254.774 201.616 252.731 204.878 251.234 208.28H263.509C264.328 204.878 265.42 201.608 267.058 198.891C270.192 193.308 274.419 190.583 278.514 190.583C271.003 190.592 263.509 193.317 257.777 198.891Z" fill="#E5B900"/>
<path d="M278.504 190.592C274.41 190.592 270.183 193.449 267.049 198.9C265.411 201.625 264.319 204.887 263.5 208.289H278.496V190.592H278.504Z" fill="#FFD500"/>
<path d="M263.508 208.289L265.278 209.239C268.826 211.278 273.326 211.278 276.866 209.239L278.503 208.289H263.508Z" fill="#FFD500"/>
<path d="M251.234 208.289L252.185 208.966C255.32 211.146 259.415 211.146 262.549 208.966L263.5 208.289H251.234Z" fill="#E5B900"/>
<path d="M293.499 208.289L291.73 209.239C288.181 211.278 283.681 211.278 280.142 209.239L278.504 208.289H293.499Z" fill="#FFD500"/>
<path d="M305.774 208.289L304.823 208.966C301.688 211.006 297.594 211.006 294.459 208.966L293.508 208.289H305.774Z" fill="#FFD500"/>
<path d="M287.373 223.806C287.505 223.534 287.919 223.402 288.192 223.402H302.642C303.46 223.402 303.866 224.219 303.46 224.896L294.32 238.514H277.414L287.373 223.806Z" fill="white"/>
<path d="M259.273 238.242C259.273 239.754 260.33 240.967 261.66 240.967H278.364V238.242H259.273Z" fill="white"/>
<path d="M274.277 238.242C274.277 239.754 275.413 240.967 276.831 240.967H292.883L294.732 238.242H274.277Z" fill="#B9D8FF"/>
<path d="M282.188 236.607H283.411L289.954 226.804H288.73L282.188 236.607Z" fill="#7DB3FD"/>
<path d="M297.868 226.804H296.644L290.102 236.607H291.326L297.868 226.804Z" fill="#7DB3FD"/>
<path d="M286.137 236.607H287.361L293.903 226.804H292.679L286.137 236.607Z" fill="#7DB3FD"/>
<path d="M274.277 247.772H276.734L282.326 239.736C282.731 239.06 283.69 238.646 284.509 238.646H295.005C295.824 238.646 296.643 239.051 297.189 239.736L302.78 247.772H305.237L298.827 238.646C297.876 237.424 296.37 236.607 294.873 236.607H284.377C282.739 236.607 281.375 237.424 280.424 238.646L274.277 247.772Z" fill="white"/>
<path d="M302.77 247.772H305.226L310.677 240.15L310.809 240.018H308.22L302.77 247.772Z" fill="white"/>
<path d="M326.637 240.009L326.769 240.141L332.219 247.763H334.676L329.226 240H326.637V240.009Z" fill="white"/>
<path d="M319.266 238.242H321.995V208.289H319.266V238.242Z" fill="#B9D8FF"/>
<path d="M335.765 208.289H348.04C346.543 204.887 344.359 201.616 341.497 198.9C335.774 193.317 328.272 190.592 320.77 190.592C324.864 190.592 329.091 193.449 332.225 198.9C333.863 201.616 334.946 204.887 335.765 208.289Z" fill="#FFD500"/>
<path d="M320.77 190.592V208.289H335.765C334.946 204.887 333.854 201.616 332.217 198.9C329.091 193.317 324.996 190.592 320.77 190.592Z" fill="#FFEA94"/>
<path d="M300.042 198.891C297.04 201.616 294.997 204.878 293.5 208.28H305.775C306.594 204.878 307.685 201.608 309.323 198.891C312.458 193.308 316.685 190.583 320.779 190.583C313.268 190.592 305.775 193.317 300.042 198.891Z" fill="#E5B900"/>
<path d="M320.77 190.592C316.676 190.592 312.449 193.449 309.314 198.9C307.676 201.625 306.585 204.887 305.766 208.289H320.761V190.592H320.77Z" fill="#FFD500"/>
<path d="M305.773 208.289L307.543 209.239C311.092 211.278 315.591 211.278 319.131 209.239L320.769 208.289H305.773Z" fill="#FFD500"/>
<path d="M293.5 208.289L294.451 208.966C297.586 211.146 301.68 211.146 304.815 208.966L305.766 208.289H293.5Z" fill="#E5B900"/>
<path d="M335.765 208.289L333.995 209.239C330.447 211.278 325.947 211.278 322.407 209.239L320.77 208.289H335.765Z" fill="#FFD500"/>
<path d="M348.039 208.289L347.088 208.966C343.954 211.006 339.859 211.006 336.724 208.966L335.773 208.289H348.039Z" fill="#FFD500"/>
<path d="M329.639 223.806C329.771 223.534 330.185 223.402 330.457 223.402H344.907C345.726 223.402 346.131 224.219 345.726 224.896L336.586 238.514H319.68L329.639 223.806Z" fill="white"/>
<path d="M301.539 238.242C301.539 239.754 302.596 240.967 303.925 240.967H320.629V238.242H301.539Z" fill="white"/>
<path d="M316.543 238.242C316.543 239.754 317.679 240.967 319.097 240.967H335.149L336.998 238.242H316.543Z" fill="#B9D8FF"/>
<path d="M324.453 236.607H325.677L332.22 226.804H330.996L324.453 236.607Z" fill="#7DB3FD"/>
<path d="M340.134 226.804H338.91L332.367 236.607H333.591L340.134 226.804Z" fill="#7DB3FD"/>
<path d="M328.402 236.607H329.626L336.169 226.804H334.945L328.402 236.607Z" fill="#7DB3FD"/>
<path d="M316.543 247.772H319L324.591 239.736C324.996 239.06 325.956 238.646 326.775 238.646H337.271C338.09 238.646 338.909 239.051 339.455 239.736L345.046 247.772H347.503L341.092 238.646C340.141 237.424 338.636 236.607 337.139 236.607H326.643C325.005 236.607 323.64 237.424 322.689 238.646L316.543 247.772Z" fill="white"/>
<path d="M345.398 247.359H260.866L244.136 230.655C244.136 230.655 235.33 221.863 224.764 221.863C214.197 221.863 149.918 221.863 149.918 221.863V277.25H345.398V247.359Z" fill="#B9D8FF"/>
<path d="M211.122 240.686C211.686 240.686 212.144 240.229 212.144 239.666V224.597C212.144 221.336 213.438 218.69 216.705 218.69C217.268 218.69 217.726 218.232 217.726 217.67C217.726 217.107 217.268 216.65 216.705 216.65C212.32 216.65 210.109 220.21 210.109 224.589V239.657C210.101 240.229 210.559 240.686 211.122 240.686Z" fill="white"/>
<path d="M201.665 240.686C202.229 240.686 202.687 240.229 202.687 239.666V224.597C202.687 221.336 203.981 218.69 207.248 218.69C207.811 218.69 208.269 218.232 208.269 217.67C208.269 217.107 207.811 216.65 207.248 216.65C202.863 216.65 200.652 220.21 200.652 224.589V239.657C200.644 240.229 201.102 240.686 201.665 240.686Z" fill="white"/>
<path d="M202.053 227.833H211.087C211.651 227.833 212.108 227.376 212.108 226.813C212.108 226.25 211.651 225.793 211.087 225.793H202.053C201.489 225.793 201.031 226.25 201.031 226.813C201.04 227.384 201.489 227.833 202.053 227.833Z" fill="white"/>
<path d="M202.053 234.822H211.087C211.651 234.822 212.108 234.365 212.108 233.802C212.108 233.24 211.651 232.782 211.087 232.782H202.053C201.489 232.782 201.031 233.24 201.031 233.802C201.04 234.365 201.489 234.822 202.053 234.822Z" fill="white"/>
<path d="M219.328 241.706C218.342 241.706 217.858 241.451 217.232 241.064C216.713 240.756 216.114 240.396 214.952 240.396C213.798 240.396 213.191 240.756 212.662 241.073C212.072 241.442 211.571 241.706 210.584 241.706C209.563 241.706 209.061 241.407 208.524 241.09C207.978 240.765 207.37 240.396 206.217 240.396C205.072 240.396 204.465 240.756 203.919 241.073C203.302 241.451 202.827 241.706 201.832 241.706C200.846 241.706 200.361 241.451 199.736 241.064C199.217 240.756 198.618 240.396 197.456 240.396C196.311 240.396 195.703 240.756 195.157 241.073C194.541 241.451 194.065 241.706 193.07 241.706C192.463 241.706 191.961 241.213 191.961 240.598C191.961 239.991 192.454 239.49 193.07 239.49C193.502 239.49 193.581 239.446 193.995 239.183C194.699 238.769 195.712 238.18 197.456 238.18C199.225 238.18 200.264 238.804 200.89 239.174C201.321 239.446 201.4 239.49 201.832 239.49C202.263 239.49 202.334 239.446 202.756 239.183C203.461 238.769 204.473 238.18 206.217 238.18C207.987 238.18 209.026 238.804 209.651 239.174C210.091 239.437 210.179 239.49 210.593 239.49C211.025 239.49 211.121 239.429 211.518 239.183C212.152 238.804 213.191 238.18 214.961 238.18C216.73 238.18 217.77 238.804 218.395 239.174C218.826 239.446 218.905 239.49 219.337 239.49C219.944 239.49 220.446 239.983 220.446 240.598C220.429 241.213 219.936 241.706 219.328 241.706Z" fill="#7DB3FD"/>
<path d="M219.25 248.756C218.264 248.756 217.779 248.502 217.154 248.115C216.635 247.807 216.036 247.447 214.874 247.447C213.72 247.447 213.113 247.807 212.584 248.123C211.994 248.493 211.492 248.756 210.506 248.756C209.485 248.756 208.983 248.458 208.446 248.141C207.9 247.816 207.292 247.447 206.139 247.447C204.994 247.447 204.386 247.807 203.841 248.123C203.224 248.502 202.749 248.756 201.754 248.756C200.767 248.756 200.283 248.502 199.658 248.115C199.138 247.807 198.54 247.447 197.377 247.447C196.233 247.447 195.625 247.807 195.079 248.123C194.463 248.502 193.987 248.756 192.992 248.756C192.385 248.756 191.883 248.264 191.883 247.649C191.883 247.033 192.376 246.541 192.992 246.541C193.424 246.541 193.503 246.497 193.917 246.233C194.621 245.82 195.634 245.231 197.377 245.231C199.147 245.231 200.186 245.855 200.811 246.225C201.243 246.497 201.322 246.541 201.754 246.541C202.185 246.541 202.256 246.497 202.678 246.233C203.383 245.82 204.395 245.231 206.139 245.231C207.909 245.231 208.948 245.855 209.573 246.225C210.013 246.488 210.101 246.541 210.515 246.541C210.946 246.541 211.043 246.479 211.44 246.233C212.074 245.855 213.113 245.231 214.882 245.231C216.652 245.231 217.691 245.855 218.317 246.225C218.748 246.497 218.827 246.541 219.259 246.541C219.866 246.541 220.368 247.033 220.368 247.649C220.368 248.264 219.866 248.756 219.25 248.756Z" fill="#7DB3FD"/>
<path d="M375.632 54.3228H418.435C419.492 54.3228 420.232 53.4788 420.232 52.5381V45.2763C420.232 39.597 414.42 35.7023 409.242 37.909L375.21 51.6942C373.73 52.2129 374.153 54.3228 375.632 54.3228Z" fill="#F0F6FF"/>
<path d="M407.027 54.3228H436.939C437.996 54.3228 438.736 53.4788 438.736 52.5381V50.5424C438.736 44.8631 432.924 40.9685 427.746 43.1751L406.499 51.7996C405.125 52.2128 405.548 54.3228 407.027 54.3228Z" fill="#F0F6FF"/>
<path d="M358.305 54.3228H388.217C389.273 54.3228 390.013 53.4788 390.013 52.5381V50.5424C390.013 44.8631 384.201 40.9685 379.024 43.1751L357.776 51.7996C356.403 52.2128 356.825 54.3228 358.305 54.3228Z" fill="#F0F6FF"/>
<path d="M98.8464 101.982C106.627 101.982 112.935 95.684 112.935 87.9153C112.935 80.1466 106.627 73.8489 98.8464 73.8489C91.0655 73.8489 84.7578 80.1466 84.7578 87.9153C84.7578 95.684 91.0655 101.982 98.8464 101.982Z" fill="#FFD500"/>
<path d="M105.661 144.287H60.4805V248.801H105.661V144.287Z" fill="white"/>
<path d="M96.2834 161.764H69.8672V170.556H96.2834V161.764Z" fill="#B9D8FF"/>
<path d="M96.2834 181.985H69.8672V190.776H96.2834V181.985Z" fill="#B9D8FF"/>
<path d="M96.2834 202.205H69.8672V210.997H96.2834V202.205Z" fill="#B9D8FF"/>
<path d="M96.2052 222.426H69.7891V231.217H96.2052V222.426Z" fill="#B9D8FF"/>
<path d="M150.567 144.287H105.387V248.801H150.567V144.287Z" fill="#7DB3FD"/>
<path d="M141.19 161.764H114.773V170.556H141.19V161.764Z" fill="#005AEB"/>
<path d="M141.19 181.985H114.773V190.776H141.19V181.985Z" fill="#005AEB"/>
<path d="M141.19 202.205H114.773V210.997H141.19V202.205Z" fill="#005AEB"/>
<path d="M141.111 222.426H114.695V231.217H141.111V222.426Z" fill="#005AEB"/>
<mask id="mask1" mask-type="alpha" maskUnits="userSpaceOnUse" x="20" y="203" width="49" height="29">
<rect x="20.9961" y="203" width="48" height="29" fill="white"/>
</mask>
<g mask="url(#mask1)">
<path d="M22.4051 204.14C22.3354 204.14 22.3354 204.209 22.2656 204.209C22.4051 204.209 22.4749 204.209 22.4051 204.14Z" fill="white"/>
<path d="M21.422 204.351C20.9289 204.351 20.9994 205.124 21.422 205.124C21.9856 205.124 21.9151 204.421 22.2674 204.14C21.9856 203.999 21.422 203.929 21.422 204.351Z" fill="white"/>
<path d="M23.5328 203.366C23.4623 203.436 23.1806 203.999 23.5328 203.788C23.6737 203.577 23.6737 203.507 23.5328 203.366Z" fill="white"/>
<path d="M24.1675 203.366C23.604 203.718 25.2946 203.929 24.731 203.085C24.5197 203.155 24.3788 203.225 24.1675 203.366Z" fill="white"/>
<path d="M22.7605 203.929C22.9014 203.647 23.1127 203.366 23.1127 203.085C23.1831 202.803 22.9014 202.522 22.9014 202.241C22.4083 202.733 22.4083 203.366 22.7605 203.929Z" fill="white"/>
<path d="M23.6031 206.32C23.9553 206.672 24.0258 206.109 23.8849 205.898C23.9553 205.687 23.2509 205.968 23.6031 206.32Z" fill="white"/>
<path d="M26.4225 202.452C26.3521 202.733 26.3521 202.874 26.0703 202.944C26.3521 202.944 26.3521 203.014 26.2816 203.225C26.3521 203.155 26.4225 203.085 26.493 203.014C26.6339 202.944 26.7747 202.944 26.9156 202.874C27.1974 202.803 27.4792 202.733 27.4792 202.381C27.2678 202.452 27.127 202.663 26.9156 202.663C26.6339 202.733 26.5634 202.663 26.4225 202.452Z" fill="white"/>
<path d="M30.0156 203.858C30.1568 204 30.298 204.282 30.4392 203.929C30.5804 203.717 30.1568 203.858 30.0156 203.858Z" fill="white"/>
<path d="M42.1406 202.803C42.2815 202.944 42.4224 203.014 42.6337 202.803C42.4928 202.522 42.4224 202.522 42.1406 202.803Z" fill="white"/>
<path d="M45.9414 204.421C45.9414 204.491 45.9414 204.491 46.0809 204.491C46.1507 204.421 46.0809 204.421 45.9414 204.421Z" fill="white"/>
<path d="M43.7578 202.944C44.11 202.874 44.4622 203.225 44.8145 203.155C44.3918 202.803 44.11 202.592 43.7578 202.944Z" fill="white"/>
<path d="M64.688 196.684C65.0402 196.403 65.4629 196.684 65.322 196.051C65.2515 195.559 64.8993 195.278 64.4062 195.629C64.4062 195.278 64.688 195.348 64.8993 195.278C65.2515 195.207 65.322 195.067 65.6742 194.926C65.8151 194.856 65.8855 194.785 66.0968 194.856C66.3786 194.926 66.2377 194.996 66.2377 195.207C66.1673 195.489 65.8855 195.7 65.956 195.911C66.0968 196.403 67.1535 196.051 67.5057 195.981C67.9988 195.911 68.4215 195.7 68.6328 195.278L68.7032 195.348L68.7737 195.278C68.7032 195.278 68.6328 195.278 68.6328 195.278C68.7032 195.067 68.7737 194.926 68.7737 194.645H68.2806V194.715C68.1397 194.996 67.9284 195.067 67.6466 195.278C67.5057 194.434 67.3648 195.348 67.0126 195.418C66.4491 195.559 66.6604 195.137 66.8717 194.715H66.5899C66.6604 194.785 66.6604 194.926 66.5899 194.856C66.5195 194.856 66.5195 194.785 66.5195 194.715H64.9697C64.8993 194.856 64.8289 195.067 64.8289 194.996C64.5471 195.067 64.688 194.856 64.5471 194.856C64.3358 194.856 64.3358 194.926 64.1244 195.067C64.1949 194.926 64.3358 194.785 64.4062 194.715H62.6451C62.4338 194.785 62.2225 194.856 62.152 194.856C62.0816 194.856 62.0816 194.715 62.0111 194.715H61.8702C61.7998 194.715 61.7998 194.715 61.7294 194.715C61.7294 194.856 61.7294 194.926 61.5885 194.856C61.518 194.785 61.4476 194.856 61.3771 194.856C61.2363 194.996 61.1658 195.067 61.0954 195.207C60.9545 195.418 61.0249 195.629 60.7432 195.77C60.3909 195.911 60.0387 195.629 59.9683 195.278C59.8978 194.785 58.7003 195.418 58.8412 195.911C58.2776 195.84 58.3481 195.348 58.2776 194.926C58.4185 195.067 58.6299 194.856 58.7003 194.785C58.489 194.645 58.4185 194.715 58.2776 194.856C58.2776 194.785 58.2776 194.715 58.2776 194.645H41.3625C41.4329 194.856 41.3625 195.067 41.0807 194.996C41.1512 194.856 41.2216 194.715 41.292 194.645H41.0103C41.0807 194.715 41.0807 194.856 41.0103 194.785C40.9398 194.785 40.9398 194.715 40.9398 194.645H22.6862C22.7567 194.856 22.6862 195.067 22.4045 194.996C22.4749 194.856 22.5454 194.715 22.6158 194.645H22.334C22.4045 194.715 22.4045 194.856 22.334 194.785C22.2636 194.785 22.2636 194.715 22.2636 194.645H-19.113C-19.113 194.715 -19.1834 194.856 -19.3243 194.926C-19.6061 195.067 -19.8878 194.926 -19.9583 194.645H-21.0854C-21.1558 194.926 -21.508 194.926 -21.7194 194.785C-21.7898 194.715 -21.8602 194.715 -22.0011 194.645H-22.4238C-22.4942 194.645 -22.4942 194.715 -22.5647 194.785C-22.8465 195.207 -22.5647 195.418 -22.2125 195.418C-21.508 195.489 -20.6627 195.278 -19.9583 195.418C-20.5218 195.629 -19.8174 195.981 -19.6765 196.051C-19.3243 196.192 -19.113 196.262 -18.7607 196.403C-19.113 196.544 -19.0425 196.473 -18.9016 196.825C-18.8312 196.966 -18.8312 197.106 -18.6903 197.106C-18.3381 197.247 -18.3381 196.895 -18.1972 196.825C-17.9154 196.544 -17.3519 195.981 -17.211 196.614C-17.1406 196.966 -17.4928 197.669 -16.7883 197.528C-16.4361 197.458 -15.8021 196.825 -15.8726 196.403C-15.7317 196.473 -14.8159 196.051 -14.9568 196.403C-14.5342 195.911 -14.8159 197.106 -14.7455 197.388C-14.675 197.669 -14.6046 198.021 -15.0977 197.88C-15.5204 197.739 -15.2386 196.966 -15.8726 197.247C-16.0839 197.317 -16.4361 197.528 -16.577 197.669C-16.7179 197.81 -16.7179 198.021 -16.8588 198.161C-17.0701 198.443 -17.4223 198.091 -17.4928 198.583C-17.5632 199.076 -17.1406 199.076 -16.7883 199.076C-16.577 199.076 -16.3657 199.216 -16.2248 199.146C-15.943 199.076 -15.8726 198.794 -15.6612 198.654C-15.4499 198.935 -15.2386 199.146 -15.4499 199.427C-15.5908 199.357 -15.6612 199.427 -15.6612 199.638C-15.7317 199.709 -15.7317 199.779 -15.8021 199.849C-15.8021 199.92 -15.8726 199.99 -15.8726 200.06C-16.2248 200.06 -16.5066 200.06 -16.6475 199.709C-17.1406 199.92 -16.7179 201.115 -16.1544 200.412C-16.0839 200.271 -15.943 200.201 -15.8726 200.06C-15.943 200.131 -15.943 200.271 -15.8726 200.342C-15.7317 200.764 -15.4499 200.342 -15.1681 200.201C-14.8864 200.06 -14.675 200.131 -14.6046 199.779C-14.2524 199.99 -14.7455 200.693 -14.2524 200.975C-14.675 201.256 -14.4637 201.397 -14.6046 201.819C-14.7455 202.17 -15.1681 202.522 -15.5204 202.522C-15.309 202.592 -15.5204 202.663 -15.5908 202.733C-14.9568 203.155 -14.675 202.452 -14.1115 202.522C-13.6888 202.592 -13.1957 203.155 -12.7026 203.296C-12.3504 203.436 -11.5755 203.647 -11.4347 203.155C-11.2938 202.803 -11.5051 202.663 -11.2938 202.381C-11.2233 202.311 -10.8711 201.959 -10.8007 201.959C-11.012 202.452 -10.6598 202.1 -10.5189 202.03C-10.3076 201.959 -10.0258 202.03 -9.88491 201.889C-10.0258 202.1 -10.1667 202.452 -10.378 202.592C-10.7302 202.733 -10.7302 202.381 -10.9416 202.381C-11.012 202.381 -11.012 202.522 -11.0824 202.733C-11.1529 202.733 -11.1529 202.733 -11.1529 202.803C-11.2233 203.085 -11.2938 203.436 -11.2938 203.507C-11.3642 203.718 -11.5051 203.858 -11.1529 203.999C-10.9416 204.069 -10.6598 203.999 -10.4485 203.929C-9.81447 203.718 -9.74402 203.296 -9.53269 202.733C-9.32136 202.17 -9.11003 201.678 -8.89871 201.115C-9.11003 201.256 -9.60314 201.678 -9.74402 201.326C-9.74402 201.326 -9.67358 200.834 -9.67358 200.764C-9.60314 200.412 -9.53269 200.201 -9.25092 199.99C-9.03959 200.06 -9.11003 200.482 -9.11003 200.693C-9.11003 200.412 -8.75782 200.623 -8.61693 200.623C-8.4056 200.623 -7.48984 200.482 -8.12383 200.342C-7.63073 200.131 -8.12383 199.357 -7.56029 199.216C-7.70117 199.216 -7.77162 199.146 -7.70117 199.005C-7.27851 199.216 -7.13763 199.498 -6.64453 199.287C-6.15142 199.076 -5.94009 198.865 -5.37655 198.865C-5.23566 198.865 -4.88345 198.865 -4.74256 198.935C-4.53123 198.865 -4.46079 199.005 -4.53123 199.216C-4.53123 199.357 -4.53123 199.498 -4.60167 199.638C-4.60167 200.131 -4.46079 200.201 -3.96768 200.201C-4.10857 200.412 -4.24946 200.553 -4.39034 200.764C-4.53123 200.764 -4.67212 200.764 -4.813 200.764V200.693C-4.813 200.693 -4.95389 200.693 -4.95389 200.764C-5.16522 200.834 -5.3061 200.975 -5.02433 201.186C-4.95389 201.256 -4.88344 201.256 -4.813 201.256C-5.02433 201.537 -4.95389 202.17 -4.67212 202.381C-4.39034 202.522 -3.68591 202.452 -3.75635 202.03C-3.75635 202.1 -3.68591 202.1 -3.61547 202.17C-3.26325 202.311 -3.12237 201.678 -2.77015 201.678C-2.77015 201.608 -2.8406 201.537 -2.8406 201.537C-2.8406 201.537 -2.77015 201.537 -2.77015 201.467C-2.84059 201.467 -2.84059 201.467 -2.91104 201.467C-2.98148 201.326 -3.12237 201.256 -3.26325 201.397C-3.40414 201.467 -3.61547 201.678 -3.75635 201.889L-3.8268 201.819C-3.89724 201.608 -3.68591 201.326 -3.89724 201.186C-3.96768 201.115 -4.24946 201.326 -4.3199 201.326C-4.10857 201.186 -3.89724 201.045 -4.10857 200.904C-3.8268 200.834 -3.61547 200.482 -3.40414 200.412C-3.47458 200.764 -3.61547 201.115 -3.05192 201.045C-2.69971 200.975 -2.20661 200.553 -2.06572 200.201C-2.34749 200.06 -3.12237 200.412 -3.26325 199.99C-3.05192 200.06 -2.91104 199.92 -2.77015 199.92C-2.62926 199.92 -2.55882 199.92 -2.41794 199.99C-2.41794 199.99 -2.41794 199.99 -2.41794 199.92C-2.20661 199.92 -1.99528 199.92 -1.78395 199.849C-1.64306 199.849 -1.50217 199.849 -1.36129 199.849C-1.36129 199.779 -1.36129 199.779 -1.43173 199.779V199.709C-1.36129 199.638 -1.29084 199.638 -1.14996 199.568C-1.07951 199.849 -1.43173 200.131 -1.50217 200.412C-1.78395 200.201 -2.06572 200.975 -2.06572 201.186C-1.92483 201.045 -1.78395 200.904 -1.64306 200.764C-1.78395 201.256 -1.85439 202.241 -1.29084 202.452C-0.868185 202.592 -0.797743 202.381 -0.797743 202.1C-0.727301 202.1 -0.656857 202.1 -0.586412 202.1C-0.375084 202.03 -0.163754 201.819 0.0475769 201.678C0.118019 201.608 0.32935 201.537 0.32935 201.537C0.188463 201.467 0.0475769 201.467 -0.0933094 201.537C-0.375082 201.748 -0.656857 201.397 -0.938629 201.186C-1.00907 200.834 -0.938631 200.623 -0.656858 200.201C-0.445528 199.92 -0.445528 199.779 -0.515972 199.498C-0.586414 199.216 -0.656857 199.287 -0.445526 199.076C-0.234198 198.794 0.118017 198.724 0.39979 198.443C0.61112 198.232 0.681562 197.95 0.822449 197.739C1.03378 197.528 1.10422 197.528 1.17467 197.669C1.10422 197.669 1.03378 197.669 0.963335 197.739C0.892893 197.81 0.892893 197.81 0.822449 197.88C0.963335 198.021 1.17467 198.091 1.386 198.091C1.386 198.161 1.45644 198.161 1.73821 198.232C1.80865 198.232 1.8791 198.232 1.94954 198.232C1.8791 198.302 1.80866 198.302 1.66777 198.372C1.8791 198.513 1.94954 198.443 1.94954 198.232C2.01999 198.232 2.09043 198.232 2.16087 198.302C2.23131 198.372 2.3722 198.372 2.3722 198.513C2.44264 198.724 2.23131 198.865 2.3722 199.146C2.3722 199.216 2.51308 199.216 2.58353 199.216C2.72441 199.357 2.8653 199.498 3.00619 199.638C3.28796 200.06 3.21752 200.412 3.07663 200.904C3.28796 200.975 3.56973 201.115 3.78106 201.045C3.85151 200.975 3.85151 200.834 3.92195 200.764C3.99239 200.553 3.99239 200.553 3.78106 200.412C3.78106 200.271 3.85151 200.131 3.85151 199.92C3.85151 199.99 3.92195 200.06 3.92195 200.06C3.85151 200.06 3.85151 200.131 3.78106 200.131C4.20372 200.201 4.41505 200.06 4.69683 199.849C4.76727 199.849 4.83771 199.849 4.83771 199.849C4.76727 199.779 4.69683 199.638 4.69683 199.568C4.76727 199.568 4.76727 199.568 4.76727 199.568C4.83771 199.568 4.83771 199.216 4.90816 199.146C4.9786 199.005 5.26037 199.216 5.04904 198.935C4.9786 198.865 4.76727 198.794 4.62638 198.654C4.69682 198.513 4.76727 198.372 4.83771 198.232C5.11948 198.302 5.54214 198.372 5.68303 198.443C5.89436 198.443 6.03524 198.513 6.24657 198.513C5.9648 198.583 5.68303 198.654 5.54214 198.935C5.33081 199.287 5.54214 199.568 5.68303 199.849C5.68303 199.849 5.68303 199.849 5.61259 199.849C5.54214 200.131 5.26037 200.412 5.26037 200.764C5.40125 200.623 5.61259 200.412 5.75347 200.271C5.75347 200.412 5.4717 200.553 5.68303 200.693C5.82391 200.834 6.24657 200.623 6.38746 200.553C6.52834 200.482 6.81012 200.201 6.88056 200.201C7.16233 200.201 7.02145 200.623 7.23278 200.693C7.58499 200.06 6.951 199.709 7.02145 199.146C7.02145 198.935 7.16233 198.865 7.23278 198.724C7.30322 198.654 7.30322 198.443 7.37366 198.443C7.44411 198.302 7.51455 198.443 7.65544 198.302C7.65544 198.232 7.58499 198.161 7.51455 198.091C7.72588 197.95 7.86676 197.739 7.79632 197.528L7.86676 197.458C8.50075 197.458 8.71208 197.81 8.43031 198.372C8.35987 198.372 8.35987 198.443 8.28942 198.513C8.21898 198.513 8.21898 198.513 8.07809 198.583C7.86676 198.724 7.93721 199.216 8.07809 199.287C8.14854 199.287 8.14854 199.357 8.21898 199.357C8.07809 199.357 7.86676 199.427 7.79632 199.568C7.65544 199.779 7.93721 200.271 8.21898 200.412C8.64164 200.623 8.43031 200.271 8.64164 200.271C8.71208 200.201 8.64164 199.638 8.5712 199.498L8.50075 199.427C8.85297 199.498 9.20518 199.357 9.5574 199.216H9.62784C9.76873 199.216 9.83917 199.146 9.83917 199.076C9.90961 199.005 10.0505 199.005 10.1209 199.005C10.0505 198.935 10.0505 198.935 9.98006 199.005C10.0505 198.935 10.1209 198.865 10.1914 198.794C10.2618 198.865 10.3323 199.005 10.4027 199.076C10.3323 199.076 10.3323 199.076 10.2618 199.076C10.3323 199.216 10.4027 199.216 10.4732 199.146C10.5436 199.287 10.5436 199.357 10.4732 199.498C10.3323 199.427 10.2618 199.498 10.2618 199.709C10.1209 199.709 9.98006 199.638 9.83917 199.568C9.69829 199.849 9.90961 199.92 10.1209 199.92C10.1209 199.99 10.0505 199.99 10.0505 200.06C9.69828 200.06 9.34607 200.06 9.27563 199.709C8.78253 199.92 9.20518 201.115 9.76873 200.412C9.83917 200.271 9.98006 200.201 10.0505 200.06C10.0505 200.131 9.98006 200.271 10.0505 200.342C10.1914 200.623 10.3323 200.482 10.5436 200.342C10.5436 200.412 10.4732 200.482 10.4732 200.553C10.4027 200.904 10.4732 201.256 10.4732 201.608C11.1776 201.326 10.7549 200.764 11.1071 200.271C11.1776 200.201 11.3185 200.131 11.3889 200.06C11.3889 200.271 11.3185 200.482 11.3889 200.693C11.3185 200.693 11.248 200.764 11.1776 200.834C11.1072 200.975 11.1776 201.186 11.3185 201.256C11.248 201.397 11.3185 201.537 11.248 201.819C11.1071 202.17 10.6845 202.522 10.3323 202.522C10.5436 202.592 10.3323 202.663 10.2618 202.733C10.8958 203.155 11.1776 202.452 11.7411 202.522C12.1638 202.592 12.6569 203.155 13.15 203.296C13.5022 203.436 14.2771 203.647 14.418 203.155C14.5589 202.803 14.3475 202.663 14.5589 202.381C14.6293 202.311 14.9815 201.959 15.052 201.959C14.8406 202.452 15.1929 202.1 15.3337 202.03C15.5451 201.959 15.8268 202.03 15.9677 201.889C15.8268 202.1 15.686 202.452 15.4746 202.592C15.1224 202.733 15.1224 202.381 14.9111 202.381C14.9111 202.381 14.8406 202.522 14.7702 202.733C14.6997 202.733 14.6998 202.733 14.6998 202.803C14.6293 203.085 14.5589 203.436 14.5589 203.507C14.4884 203.718 14.3475 203.858 14.6998 203.999C14.9111 204.069 15.1929 203.999 15.4042 203.929C16.0382 203.718 16.1086 203.296 16.3199 202.733C16.5313 202.17 16.7426 201.678 16.9539 201.115C16.7426 201.256 16.2495 201.678 16.1086 201.326C16.1086 201.326 16.1791 200.834 16.1791 200.764C16.1791 200.693 16.2495 200.623 16.2495 200.482C16.3904 200.482 16.6017 200.412 16.6722 200.342C16.6722 200.482 16.6722 200.623 16.6722 200.623C16.6722 200.342 17.0244 200.553 17.1653 200.553C17.2357 200.553 17.2357 200.553 17.3061 200.553C17.5879 200.623 17.8697 200.623 18.1515 200.693C18.0106 200.904 17.9401 201.115 17.9401 201.186C17.6584 200.975 17.6584 200.764 17.3061 200.834C17.447 201.256 17.447 201.678 17.7993 202.03C17.5879 202.17 17.5175 202.311 17.447 202.452C17.3766 202.452 17.3061 202.522 17.1653 202.592C17.2357 202.663 17.3061 202.663 17.3061 202.733C17.0948 202.733 16.6722 202.803 16.7426 203.085C16.813 203.366 17.6584 203.296 17.5879 202.944C17.5175 202.452 18.6446 202.452 18.0106 201.889C18.1515 201.748 18.8559 201.608 18.8559 201.467C18.6446 201.467 18.3628 201.537 18.1515 201.397C18.5741 201.186 18.1515 200.553 18.5741 200.693C18.5037 200.482 18.4332 200.412 18.3628 200.412C18.3628 200.412 18.4332 200.412 18.4332 200.342C18.6446 200.131 18.5741 199.849 18.2219 199.849C17.8697 199.849 17.8697 199.779 17.7288 199.638C17.7288 199.427 17.7992 199.216 18.0106 199.216C17.8697 199.216 17.7992 199.146 17.8697 199.005C18.2924 199.216 18.4332 199.498 18.9263 199.287C18.7855 199.498 18.7855 199.638 19.1377 199.779C19.2786 199.849 19.4899 199.779 19.6308 199.709C19.4899 200.06 19.2081 199.849 18.8559 199.92C19.0672 200.06 19.0672 200.271 19.0672 200.482C18.9968 200.693 18.7855 200.764 18.715 200.904C18.6446 201.326 19.2786 201.115 19.4194 201.045C19.8421 200.764 19.7717 200.412 19.8421 199.99C19.983 200.06 20.0534 199.99 20.1943 199.99C19.8421 200.482 21.0396 200.623 20.2648 199.849L20.1943 199.92C20.1943 199.779 19.9125 199.709 19.7717 199.638L19.8421 199.568C20.0534 199.568 20.1943 199.498 20.2648 199.357C20.4761 199.005 20.2648 199.005 20.0534 199.005C19.983 199.005 19.983 199.076 19.9125 199.076C19.9125 199.005 19.8421 198.935 19.8421 198.865C19.983 198.865 20.0534 198.794 20.2648 198.794C20.4056 198.794 20.5465 198.794 20.7579 198.794C20.7579 199.005 20.8283 199.216 21.0396 199.357C21.0396 199.357 21.0396 199.357 21.1101 199.357C21.1101 199.427 21.1101 199.427 21.0396 199.498C21.0396 199.99 21.1805 200.06 21.6736 200.06C21.6032 200.201 21.5327 200.271 21.4623 200.412C21.1101 200.201 20.617 200.201 20.3352 200.553C20.4761 200.553 20.617 200.553 20.7579 200.623C20.6874 200.623 20.6874 200.693 20.8283 200.764C20.8283 200.693 20.8283 200.693 20.8988 200.623C21.0396 200.623 21.1805 200.623 21.3214 200.623C21.3214 200.623 21.3214 200.693 21.251 200.693C21.6736 200.904 21.885 200.342 22.2372 200.271C22.1667 200.623 22.0258 200.975 22.5894 200.904C22.8712 200.904 23.1529 200.693 23.3643 200.412H23.4347V200.342C23.5051 200.271 23.5756 200.131 23.5756 200.06C23.5051 200.06 23.4347 200.06 23.2938 200.06C23.1529 199.92 22.8712 199.99 22.6598 200.06C22.5189 200.06 22.3781 199.99 22.3781 199.849C22.5894 199.92 22.7303 199.779 22.8712 199.779C23.012 199.779 23.0825 199.779 23.2234 199.849C23.2234 199.779 23.2234 199.709 23.2938 199.709C23.5756 199.638 23.9278 199.779 24.2096 199.709C24.2096 199.638 24.2096 199.638 24.1391 199.638C24.2096 199.498 24.28 199.357 24.28 199.216C24.4914 199.357 24.4913 199.498 24.4209 199.709C24.4209 199.709 24.4209 199.709 24.4209 199.779C24.3505 199.849 24.3505 199.92 24.28 199.99C24.2096 199.99 24.1391 199.99 24.1391 200.06C24.0687 200.131 23.9278 200.131 23.9278 200.271C23.7165 200.412 23.5756 200.904 23.5756 201.045C23.7165 200.904 23.8574 200.764 23.9982 200.623C23.9278 201.115 23.7869 202.03 24.28 202.311C24.28 202.311 24.2096 202.311 24.2096 202.381C24.2096 202.522 24.28 202.522 24.4913 202.452C24.9845 202.592 24.914 201.819 24.8436 201.467C24.7027 200.834 24.7027 200.693 25.0549 200.131C25.1958 199.849 25.1958 199.779 25.1958 199.568C25.1958 199.498 25.1958 199.498 25.1958 199.427C25.1253 199.146 25.0549 199.216 25.2662 199.005C25.4776 198.724 25.8298 198.654 26.1115 198.372C26.3229 198.161 26.3933 197.88 26.5342 197.669C26.816 197.388 26.816 197.528 26.9569 197.81C27.0977 198.091 26.9569 198.091 27.3795 198.161C27.5204 198.161 27.5909 198.091 27.8022 198.161C27.8726 198.232 27.9431 198.232 27.9431 198.302C27.8726 198.302 27.8022 198.302 27.6613 198.372V198.443C27.8022 198.372 27.8726 198.372 27.9431 198.372C28.0135 198.583 27.8022 198.724 27.9431 199.005C27.9431 199.076 28.084 199.076 28.1544 199.076C28.2953 199.216 28.4362 199.357 28.5771 199.498C28.8588 199.92 28.7884 200.271 28.6475 200.764C28.8588 200.834 29.1406 200.975 29.3519 200.904C29.4224 200.834 29.4224 200.693 29.4928 200.623C29.5633 200.412 29.5633 200.412 29.3519 200.271C29.3519 200.131 29.4224 199.99 29.4224 199.779C29.4928 199.92 29.5633 199.99 29.7041 199.99V200.553C29.4224 200.834 29.2815 201.467 29.7041 201.748C29.2815 202.03 29.4928 202.17 29.2815 202.522C29.1406 202.803 28.6475 203.155 28.2953 203.225C28.7884 203.507 29.2815 203.155 29.5633 202.733C29.5633 202.733 29.6337 202.663 29.6337 202.592V202.663C29.7746 202.592 29.9859 202.452 30.1972 202.522C30.6199 202.592 31.113 203.155 31.6061 203.296C31.9583 203.436 32.7332 203.647 32.8741 203.155C33.015 202.803 32.8036 202.663 33.015 202.381C33.0854 202.311 33.4376 201.959 33.5081 201.959C33.2967 202.452 33.649 202.1 33.7898 202.03C34.0012 201.959 34.2829 202.03 34.4238 201.889C34.2829 202.1 34.1421 202.452 33.9307 202.592C33.5785 202.733 33.5785 202.381 33.3672 202.381C33.3672 202.381 33.2967 202.522 33.2263 202.663H33.1559C32.9445 202.803 32.8741 203.014 32.7332 203.225C32.8741 203.225 33.015 203.225 33.0854 203.155C33.015 203.296 33.015 203.507 33.015 203.507C32.9445 203.577 32.9445 203.718 32.9445 203.788C32.8741 203.647 32.8036 203.577 32.7332 203.507C32.8036 203.858 32.381 204.14 32.5923 204.562C32.5219 204.562 32.4514 204.562 32.3105 204.632C32.5219 205.054 32.8741 205.124 33.015 204.632C33.0854 204.421 33.0854 204.21 32.9445 203.999C32.9445 203.999 33.015 204.069 33.0854 204.069C33.2967 204.14 33.5785 204.069 33.7898 203.999C34.4238 203.788 34.4943 203.366 34.7056 202.803C34.9169 202.241 35.1283 201.748 35.3396 201.186C35.1283 201.326 34.6352 201.748 34.4943 201.397C34.4943 201.397 34.5647 200.904 34.5647 200.834C34.5647 200.764 34.6352 200.693 34.6352 200.553C34.776 200.553 34.9874 200.482 35.0578 200.412C35.0578 200.553 35.0578 200.693 35.0578 200.693C35.0578 200.412 35.2692 200.553 35.4805 200.623C35.4805 200.693 35.4805 200.764 35.4805 200.764C35.41 200.623 35.3396 200.693 35.1987 200.764C35.1987 200.764 35.41 200.904 35.4805 200.904C35.4805 201.115 35.4805 201.397 35.4805 201.678C35.6214 201.608 35.7623 201.537 35.8327 201.467C35.9031 201.748 35.9736 201.959 36.1849 202.17C35.9736 202.311 35.9031 202.452 35.8327 202.592C35.7623 202.592 35.6918 202.663 35.5509 202.733C35.6214 202.803 35.6918 202.803 35.6918 202.874C35.4805 202.874 35.0578 202.944 35.1283 203.225C35.1987 203.507 36.044 203.436 35.9736 203.085C35.9031 202.592 37.0302 202.592 36.3962 202.03C36.5371 201.889 37.2416 201.748 37.2416 201.608C37.0302 201.608 36.7485 201.678 36.5371 201.537C36.678 201.467 36.7485 201.326 36.7485 201.186C36.7485 201.186 36.7485 201.186 36.8189 201.186C36.8189 201.186 36.8189 201.115 36.7485 201.045C36.7485 200.904 36.8189 200.834 36.9598 200.834C36.8893 200.623 36.8189 200.553 36.7485 200.553C36.7485 200.553 36.8189 200.553 36.8189 200.482C37.0302 200.271 36.9598 199.99 36.678 199.99C36.8893 199.92 37.1711 199.849 37.312 199.779C37.3824 199.849 37.3825 199.849 37.5233 199.92C37.5938 199.92 37.6642 199.92 37.7347 199.92C37.6642 199.92 37.5938 199.99 37.5233 199.99C37.4529 199.99 37.312 199.99 37.2416 199.99C37.312 199.99 37.312 200.06 37.3824 200.131C37.312 200.201 37.312 200.271 37.2416 200.342C37.312 200.342 37.3825 200.412 37.4529 200.412C37.4529 200.482 37.4529 200.482 37.4529 200.553C37.3825 200.764 37.1711 200.834 37.1007 200.975C37.0302 201.397 37.6642 201.186 37.8051 201.115C37.946 201.045 38.0869 200.904 38.1573 200.764C38.2982 200.904 38.4391 201.115 38.6504 201.045C38.7913 200.975 38.8618 200.904 38.8618 200.764C38.9322 200.764 39.0026 200.764 39.0731 200.764C39.0026 200.764 39.0026 200.834 39.1435 200.904C39.1435 200.834 39.1435 200.834 39.214 200.764C39.3549 200.764 39.4957 200.764 39.6366 200.764C39.6366 200.764 39.6366 200.834 39.5662 200.834C39.9888 201.045 40.2002 200.482 40.5524 200.412C40.4819 200.764 40.3411 201.115 40.9046 201.045C41.1864 201.045 41.4681 200.834 41.6795 200.553H41.7499V200.482C41.8204 200.412 41.8908 200.271 41.8908 200.201C41.8204 200.201 41.7499 200.201 41.6795 200.201V200.131C41.8204 200.06 42.0317 200.06 42.1726 199.92C42.1726 199.92 42.1726 199.92 42.1726 199.99C42.243 200.06 42.1726 199.92 42.1726 199.92C41.9613 199.92 41.8204 199.849 41.609 199.849C41.8908 199.779 42.243 199.92 42.5248 199.849C42.5248 199.779 42.5248 199.779 42.4544 199.779C42.5248 199.638 42.5952 199.498 42.5952 199.357C42.7361 199.498 42.8066 199.568 42.7361 199.709C42.7361 199.638 42.6657 199.638 42.6657 199.568C42.5952 199.92 42.5952 199.849 42.3839 200.06C42.1726 200.271 42.1021 200.412 41.8908 200.623H41.9613C41.8908 200.834 41.8204 201.045 41.8204 201.115C41.9613 200.975 42.1021 200.834 42.243 200.693C42.1726 201.186 42.0317 202.1 42.5248 202.381C42.5248 202.381 42.4544 202.381 42.4544 202.452C42.4544 202.592 42.5248 202.592 42.7361 202.522C43.2292 202.663 43.1588 201.889 43.0883 201.537C43.0179 201.186 42.9475 201.045 43.0179 200.834H43.0883C42.9475 200.553 43.2997 200.623 43.4406 200.482C43.5814 200.342 43.5814 200.131 43.4406 199.99C43.511 199.849 43.511 199.709 43.511 199.568C43.511 199.498 43.511 199.498 43.511 199.427C43.4406 199.146 43.3701 199.216 43.5814 199.005C43.7223 198.865 43.9337 198.724 44.145 198.583C44.2154 198.583 44.2154 198.583 44.2859 198.583C44.3563 198.583 44.3563 198.513 44.3563 198.443C44.3563 198.443 44.3563 198.443 44.4268 198.443C44.6381 198.232 44.7085 197.95 44.8494 197.739C45.1312 197.458 45.1312 197.599 45.2721 197.88C45.413 198.161 45.2721 198.161 45.6947 198.232C45.8356 198.232 45.9061 198.161 46.1174 198.232C46.1878 198.302 46.2583 198.302 46.2583 198.372H46.2231C46.1526 198.372 46.1526 198.372 46.0822 198.372V198.443C46.0822 198.443 46.0117 198.443 46.0117 198.513C45.9413 198.583 45.8708 198.724 45.8004 198.794C45.5186 199.005 45.1664 199.005 45.0255 199.287C45.0255 199.216 45.0255 199.076 44.9551 199.005C45.0255 198.935 45.1664 198.865 45.1664 198.724C45.0255 198.794 44.9551 198.794 44.8846 198.865C44.8846 198.865 44.8846 198.794 44.8142 198.794C44.6733 198.865 44.2507 199.146 44.1098 199.357C44.1098 199.357 44.1098 199.357 44.0393 199.427C43.9689 199.568 43.9689 199.638 44.0393 199.709C44.0393 199.779 44.1802 199.849 44.3211 199.92C44.3915 199.92 44.462 199.92 44.5324 199.92C44.462 199.99 44.3915 200.06 44.3915 200.131C44.1802 200.482 44.3211 200.764 44.1802 201.115C44.0393 201.045 43.8984 200.975 43.7576 200.975C43.6167 201.326 43.9689 201.467 44.1802 201.186C44.1802 201.326 44.1802 201.397 44.3211 201.467C44.3211 201.186 44.5324 200.975 44.7438 200.834C45.096 200.623 44.8142 199.99 45.1664 199.779C45.3777 199.638 45.5186 199.92 45.73 199.92C45.9413 199.92 46.2935 199.568 45.9413 199.498C46.0117 199.427 46.0117 199.427 46.0117 199.357C46.0822 199.427 46.0822 199.427 46.1526 199.498C46.4344 199.709 46.7866 199.638 46.9979 199.498C46.9979 199.498 46.9979 199.498 47.0684 199.568C47.2093 199.779 47.2797 199.99 47.2797 200.201C47.2797 200.201 47.2797 200.201 47.2797 200.271C47.2797 200.482 47.2093 200.693 47.1388 200.904C47.3502 200.975 47.6319 201.115 47.8433 201.045C47.9137 200.975 47.9137 200.834 47.9841 200.764C47.9841 200.693 47.9841 200.623 47.9841 200.553C48.125 200.553 48.2659 200.553 48.4068 200.623C47.9841 200.623 47.7024 201.608 48.1955 201.959C47.7728 202.241 47.9841 202.381 47.7728 202.733C47.6319 203.014 47.1388 203.366 46.7866 203.436C47.2797 203.718 47.7728 203.366 48.0546 202.944C48.1955 202.733 48.9703 202.1 48.759 201.819C48.5477 201.537 48.8999 200.904 48.5477 200.693C48.4772 200.623 48.4068 200.623 48.4068 200.623C48.4772 200.623 48.5477 200.623 48.6181 200.623C48.6886 200.482 48.4068 200.482 48.6181 200.412C48.4772 200.131 48.0546 200.201 47.8433 200.342C47.8433 200.201 47.9137 200.06 47.9137 199.92C47.9841 200.06 48.0546 200.131 48.1955 200.131C48.3364 200.131 48.4772 199.92 48.6181 199.849C48.6886 199.849 48.8999 199.849 48.8999 199.849C48.6886 199.709 48.6886 199.427 48.6181 199.146C48.8295 199.076 49.1112 198.865 49.1112 198.865C49.1817 198.583 49.3226 198.372 49.4634 198.161C49.393 198.161 49.393 198.161 49.3226 198.161C49.3226 197.95 49.1817 197.599 48.9704 197.669C49.0408 197.458 49.3226 197.388 49.6043 197.458H49.6748C49.8861 197.528 50.027 197.528 50.1679 197.599C50.3088 197.669 50.5201 197.739 50.5905 197.81C50.8019 197.95 50.661 198.161 50.8723 198.232C50.4497 198.583 49.6748 198.443 49.393 198.935C49.1817 199.287 49.393 199.638 49.5339 199.92V199.99C49.393 199.99 49.3226 200.06 49.2521 200.131C49.1817 200.201 49.0408 200.201 49.0408 200.342C49.0408 200.482 49.2521 200.482 49.4634 200.482C49.4634 200.553 49.4634 200.623 49.5339 200.693C49.6748 200.834 50.0974 200.623 50.2383 200.553C50.3792 200.482 50.661 200.201 50.7314 200.201C51.0132 200.201 50.8723 200.623 51.0836 200.693C51.4359 200.06 50.8019 199.709 50.8723 199.146C50.8723 198.935 51.0132 198.865 51.0836 198.724C51.1541 198.654 51.1541 198.443 51.2245 198.443C51.295 198.302 51.3654 198.443 51.5063 198.302C51.4359 198.232 51.295 197.95 51.2245 197.88C51.2245 197.88 51.2245 197.669 51.295 197.528C51.4359 197.528 51.5063 197.458 51.6472 197.458C52.2812 197.458 52.4925 197.81 52.2107 198.372C52.0698 198.654 52.0698 198.443 51.8585 198.654C51.6472 198.794 51.7176 199.287 51.8585 199.357C51.929 199.357 51.929 199.427 51.9994 199.427C51.8585 199.427 51.6472 199.498 51.5767 199.638C51.4359 199.849 51.7176 200.342 51.9994 200.482C52.4221 200.693 52.2107 200.342 52.4221 200.342C52.4925 200.271 52.4221 199.709 52.3516 199.568L52.2812 199.498C52.8447 199.568 53.4787 199.216 53.9718 199.076C53.9014 198.935 53.8309 199.076 53.7605 199.005C53.69 198.794 53.4083 198.583 53.3378 198.372C53.1265 197.88 53.1969 197.88 53.69 197.739C53.6196 197.739 53.5491 197.669 53.5491 197.599C53.69 197.599 54.0423 196.895 54.0423 196.895C54.1831 196.755 54.6762 196.825 54.6762 196.544C54.6762 196.403 54.6058 196.333 54.4649 196.333C54.0423 196.333 53.5491 196.333 53.1969 196.544C53.2674 196.614 53.3378 196.614 53.4787 196.684C53.4083 196.755 53.3378 196.966 53.1969 196.966C52.9856 196.966 53.1969 196.755 53.0561 196.684C52.7743 196.544 52.7038 196.825 52.5629 196.895C52.2812 197.036 51.9994 197.247 51.7176 197.036C51.4359 196.895 51.4359 196.544 51.6472 196.333C51.7881 196.192 51.9994 196.122 52.1403 196.122C52.3516 196.122 52.6334 196.403 52.3516 196.051C52.6334 196.262 52.9152 196.544 53.2674 196.403C53.69 196.192 53.5491 195.981 54.1127 196.122C54.324 196.192 54.7467 196.262 54.8171 196.473C54.958 196.895 54.4649 196.755 54.2536 196.966C54.7467 197.388 53.69 197.177 53.8309 197.739C53.8309 197.669 53.8309 197.599 53.9014 197.528C54.1831 197.528 54.324 197.739 54.6058 197.599C54.6058 197.739 54.3945 197.88 54.3945 198.021C54.324 198.232 54.3945 198.302 54.4649 198.443C54.5354 198.865 54.6058 199.287 54.6762 199.779C54.2536 199.779 53.9014 199.709 53.5491 199.568C53.3378 200.131 54.1127 199.779 54.2536 200.131C54.324 200.271 54.1831 200.482 54.1831 200.623C54.1127 200.975 54.1831 201.326 54.1831 201.678C54.8876 201.397 54.4649 200.834 54.8171 200.342C55.0989 199.92 55.9442 199.92 56.3669 199.638C56.5782 199.498 56.7895 199.216 56.86 198.935C57.0009 198.583 56.86 198.654 56.6487 198.372C56.5078 198.232 56.5078 198.232 56.4373 198.021C56.4373 197.95 56.4373 197.88 56.4373 197.81C56.5078 197.739 56.4373 197.669 56.2964 197.669C56.1555 197.458 55.9442 197.177 55.8033 196.895C56.0147 196.825 57.1418 196.895 56.86 197.388C56.7895 197.528 56.4373 197.458 56.4373 197.599C56.4373 197.669 57.0713 197.669 57.0713 197.739C56.5078 197.739 56.7895 198.021 57.0009 198.302C57.2122 198.583 57.4235 199.005 57.8462 198.865C57.6348 198.372 57.9871 198.654 58.2688 198.583C58.9028 198.372 58.2688 197.95 58.128 197.669C57.9871 197.458 58.0575 197.247 57.9166 197.036C57.8462 196.895 57.6348 196.825 57.5644 196.684C57.494 196.473 57.5644 196.614 57.6349 196.473C57.7053 196.403 57.8462 196.403 57.9166 196.333C57.9871 196.192 57.8462 196.122 58.0575 195.981C57.9166 196.122 57.9871 196.333 58.0575 196.473C58.0575 196.544 58.2688 196.473 58.2688 196.544C58.3393 196.614 58.4097 196.825 58.4802 196.895C58.7619 197.177 59.4664 197.247 59.7482 196.895C60.0299 196.544 59.8186 196.192 60.3821 196.192C61.0866 196.262 61.157 196.684 60.7344 197.106C61.157 197.388 61.157 197.106 61.2979 197.599C61.3683 198.021 61.6501 198.302 62.0023 198.513C62.2137 198.583 62.6363 198.794 62.8476 198.654C63.1294 198.443 62.8476 197.88 62.8476 197.528C63.1999 198.021 63.2703 197.81 63.7634 197.528C63.9043 197.388 64.1861 197.388 64.2565 197.247C64.5471 197.036 64.4766 196.825 64.688 196.684ZM-19.2538 196.192C-19.3243 196.051 -19.4652 195.911 -19.3947 195.7C-19.2539 195.77 -19.2538 195.981 -19.2538 196.192ZM-18.0563 196.051C-18.1268 196.192 -18.1972 196.333 -18.3381 196.403C-18.3381 196.192 -18.3381 196.051 -18.4085 195.84C-18.2676 195.911 -18.1972 195.981 -18.0563 196.051C-18.0563 195.77 -18.1268 195.418 -17.7745 195.348C-17.845 195.559 -17.9154 195.84 -18.0563 196.051ZM-16.9292 195.629C-16.9292 195.559 -16.9292 195.489 -16.9292 195.418C-16.8588 195.489 -16.8588 195.559 -16.9292 195.629ZM-16.3657 195.348C-16.3657 195.067 -16.4361 195.137 -16.2248 195.137C-16.2248 195.348 -16.2248 195.418 -16.3657 195.348ZM-15.7317 195.418C-15.7317 195.489 -15.943 195.559 -15.943 195.489C-15.943 195.418 -16.0135 195.067 -16.0839 194.996C-16.1544 194.926 -16.3657 195.067 -16.4361 194.926C-16.1544 194.715 -15.943 194.785 -15.8021 195.137C-15.8021 195.137 -15.7317 195.348 -15.7317 195.418ZM-12.9844 196.684C-12.8435 196.755 -12.7026 196.684 -12.6322 196.755C-12.5617 196.825 -12.4913 196.966 -12.4209 197.106C-12.6322 197.036 -13.0549 197.036 -12.9844 196.684ZM-13.1253 198.865C-13.1253 198.865 -13.1253 198.935 -13.0549 198.935C-13.1957 199.005 -13.1957 198.935 -13.1253 198.865ZM-14.675 199.638C-14.8159 199.709 -14.7455 199.216 -14.8159 199.076C-14.8159 198.865 -14.9568 198.865 -14.8159 198.654C-14.7455 198.513 -14.3933 198.513 -14.6046 198.302C-14.3228 198.443 -14.3228 198.302 -14.1819 198.232C-13.9002 198.161 -13.6184 198.091 -13.4071 197.95C-13.4775 198.232 -13.2662 198.443 -13.2662 198.654C-13.2662 198.583 -13.4775 199.146 -13.4071 199.076C-13.548 199.498 -14.3228 199.427 -14.675 199.638ZM-12.6322 203.085C-12.7731 203.155 -13.3366 202.944 -13.4071 202.733C-13.4775 202.522 -13.1957 202.311 -12.9844 202.241C-12.7026 202.1 -12.5618 201.889 -12.3504 202.311C-12.2095 202.522 -12.28 203.014 -12.6322 203.085ZM-11.012 200.553C-11.3642 200.693 -11.3642 200.342 -11.7164 200.342C-11.7164 200.553 -12.8435 200.764 -12.2095 201.045C-12.4209 201.045 -12.8435 201.326 -12.8435 201.256C-12.8435 201.537 -13.1253 201.608 -13.2662 201.748C-13.3366 201.819 -13.6888 202.17 -13.6888 202.17C-13.9002 202.241 -13.9706 201.889 -14.3228 202.03C-14.5342 201.678 -13.7593 201.397 -13.6184 201.186C-13.4775 200.904 -13.6184 200.271 -13.1957 199.99C-12.9844 199.849 -12.914 199.92 -12.7026 199.99C-12.4209 200.06 -12.2095 199.92 -11.9982 199.99C-11.9278 199.99 -11.5755 200.201 -11.5051 200.201C-11.3642 200.131 -11.646 199.849 -11.4347 199.779C-11.5051 199.779 -11.9278 199.498 -11.9278 199.498C-11.9278 199.216 -11.646 199.357 -11.5755 199.005C-11.5051 198.724 -11.9982 198.232 -11.7869 198.021C-11.8573 198.091 -11.2233 198.232 -11.2233 198.302C-11.3642 198.583 -11.3642 199.076 -11.2233 199.357C-11.0824 199.568 -10.8007 199.779 -10.7302 200.06C-10.7302 200.201 -10.8007 200.482 -11.012 200.553ZM-10.8711 199.568C-10.8711 199.427 -10.8007 199.427 -10.7302 199.498C-10.7302 199.568 -10.8007 199.638 -10.8711 199.568ZM-10.5189 201.256L-10.4485 201.186C-10.378 201.186 -10.4485 201.186 -10.5189 201.256ZM-10.5189 197.317C-10.8007 197.599 -11.4347 197.177 -11.012 196.825C-10.5893 196.544 -10.0962 196.966 -10.5189 197.317ZM-9.32136 199.357C-9.32136 199.216 -9.25092 198.865 -9.11003 199.076C-9.18048 199.216 -9.25092 199.357 -9.32136 199.357ZM-8.89871 199.779C-8.96915 199.849 -9.03959 199.92 -9.11003 199.99C-9.18048 199.779 -8.75782 199.638 -8.61693 199.638C-8.33516 199.709 -8.33516 199.99 -8.33516 200.201C-8.46724 199.92 -8.68738 199.779 -8.89871 199.779ZM-8.32636 198.372C-8.46724 198.513 -8.81946 198.372 -9.03079 198.372C-9.10123 198.372 -9.10123 198.513 -9.24212 198.513C-9.45345 198.513 -9.52389 198.372 -9.66477 198.302C-9.31256 198.232 -9.03079 197.95 -8.67857 197.81C-8.74901 197.669 -8.81946 197.88 -8.8899 197.739C-8.60813 197.739 -8.32635 197.599 -8.11502 197.388C-8.04458 197.88 -8.04458 198.091 -8.32636 198.372ZM-8.68738 195.911C-8.68738 195.981 -8.75782 195.981 -8.82826 195.981C-8.75782 195.911 -8.61693 195.84 -8.54649 195.7C-8.47605 195.629 -8.47605 195.559 -8.54649 195.489C-8.4056 195.278 -8.19427 195.207 -8.05339 194.926C-7.76281 195.348 -8.25591 195.84 -8.68738 195.911ZM-5.43818 197.388C-5.36774 197.458 -5.2973 197.528 -5.2973 197.528C-5.43818 197.599 -5.71996 197.599 -5.43818 197.388ZM-6.63572 197.739C-6.77661 197.739 -7.83325 197.88 -7.48104 197.528C-7.48104 197.528 -6.98794 197.458 -6.91749 197.458C-6.91749 197.458 -6.56528 197.669 -6.63572 197.739ZM-5.57907 198.583C-5.57907 198.513 -5.57907 198.372 -5.57907 198.302C-5.36774 198.232 -5.22686 198.232 -5.01553 198.161C-5.08597 198.372 -5.2973 198.583 -5.57907 198.583ZM-5.22686 197.739C-5.15641 197.739 -5.01553 197.88 -5.01553 197.95C-5.2973 197.81 -5.22686 197.95 -5.22686 197.739ZM-4.45198 201.819C-4.8042 201.959 -4.45198 201.397 -4.45198 201.326C-4.38154 201.537 -4.24065 201.678 -4.45198 201.819ZM17.9577 200.623C17.8873 200.693 17.8873 200.693 17.8169 200.764C17.8169 200.693 17.8169 200.623 17.9577 200.623ZM25.9971 196.755C25.9971 196.684 25.9971 196.684 25.9971 196.614C26.4902 196.895 25.9971 196.755 25.9971 196.755ZM20.1415 197.599C20.0006 197.599 19.7188 197.599 19.8597 197.528C19.9302 197.528 19.9302 197.458 20.0006 197.458C20.0006 197.458 20.071 197.528 20.1415 197.599ZM21.2686 196.192C21.2686 196.122 21.2686 196.122 21.2686 196.192V196.192ZM21.5592 197.458C21.6296 197.177 22.0523 197.106 22.2636 197.106C22.1931 197.177 22.1227 197.247 22.0523 197.317C21.9114 197.317 21.7 197.388 21.5592 197.458ZM23.1089 198.161C23.1089 198.372 23.0385 198.302 22.8271 198.372C22.8271 198.161 22.968 198.161 23.1089 198.161ZM23.8133 197.106C23.5316 196.544 23.8133 196.473 24.1655 195.981C24.236 196.262 24.9404 197.106 24.6587 197.458C24.236 197.88 23.9542 197.458 23.8133 197.106ZM24.7291 198.513C24.7291 198.583 24.7291 198.654 24.5882 198.724C24.6587 198.583 24.7291 198.513 24.7291 198.513ZM17.042 200.131C16.9715 200.06 16.9011 199.99 16.8307 199.92C16.8307 199.92 16.8307 199.92 16.7602 199.92C16.6898 199.849 16.5489 199.779 16.408 199.779L16.3376 199.849C16.2671 199.849 16.2671 199.849 16.1967 199.849C16.2671 199.709 16.5489 199.568 16.6898 199.638C16.9715 199.709 16.9715 199.92 17.042 200.131ZM9.64545 197.247C9.7159 197.106 9.78634 196.966 9.78634 196.966C9.92723 196.825 10.4203 196.895 10.4203 196.614C10.4203 196.403 10.0681 196.333 9.92723 196.403C9.78634 196.403 9.78634 196.544 9.57501 196.614C9.50457 196.614 9.43412 196.614 9.43412 196.614V196.544C9.57501 196.614 10.4908 196.192 10.3499 196.544C10.4203 196.473 10.4203 196.473 10.4203 196.473C10.4908 196.544 10.5612 196.544 10.5612 196.614C10.5612 196.684 10.5612 196.755 10.5612 196.825C10.4908 196.966 10.1386 196.966 9.99767 197.106C10.2794 197.388 10.0681 197.388 9.85678 197.458C9.85678 197.317 9.78634 197.247 9.64545 197.247ZM11.8292 199.076C11.8292 199.005 11.7588 198.935 11.7588 198.865C11.8996 199.076 11.8996 199.146 11.8292 199.076ZM11.477 198.724C11.477 199.146 10.9839 199.287 10.9134 198.794C11.0543 198.724 11.2656 198.654 11.477 198.724ZM10.4908 197.669C10.4203 197.599 10.4203 197.599 10.3499 197.528C10.4203 197.458 10.4908 197.528 10.4908 197.669ZM10.4908 197.669C10.4908 197.81 10.4203 197.88 10.3499 197.95C10.3499 197.95 10.3499 197.95 10.2794 197.95C10.1386 197.88 10.0681 197.81 10.0681 197.669C10.1386 197.739 10.2794 197.81 10.4908 197.669ZM12.3927 199.92C12.2519 199.99 12.1814 199.99 12.0405 200.06C12.0405 200.06 12.111 199.99 12.1814 199.99C12.2519 199.92 12.3223 199.92 12.3927 199.92ZM16.0558 198.161V198.232C16.0558 198.302 15.9853 198.372 15.9853 198.513C15.9149 198.443 15.774 198.372 15.7036 198.302C15.8445 198.302 15.9853 198.232 16.0558 198.161ZM16.6193 197.81C16.5489 197.81 16.5489 197.739 16.5489 197.739C16.6193 197.739 16.6898 197.739 16.7602 197.669C16.7602 197.81 16.6898 197.88 16.6193 197.81ZM16.8307 198.443C17.042 198.091 17.5351 198.021 17.1124 197.599C17.1829 197.528 17.2533 197.528 17.3238 197.458C17.3942 197.88 17.3942 198.021 17.042 198.302C16.9715 198.443 16.9011 198.443 16.8307 198.443ZM14.8582 197.317C14.5765 197.599 13.9425 197.177 14.3651 196.825C14.506 196.966 14.7174 197.036 14.9991 197.036C14.9991 197.106 14.9991 197.247 14.8582 197.317ZM13.4494 199.357C13.5198 199.216 13.7312 199.216 13.7312 199.005C13.7312 198.935 13.7312 198.794 13.6607 198.654C13.7312 198.654 13.872 198.654 14.0129 198.654C14.0129 198.865 14.0129 199.076 14.0834 199.216C13.9425 199.216 13.6607 199.287 13.4494 199.357ZM17.2533 194.926C17.3238 194.926 17.3238 194.926 17.2533 194.926C17.1829 195.067 17.1124 195.137 17.042 195.278C16.9011 195.489 16.9715 195.7 16.6898 195.84H16.6193C16.6898 195.77 16.7602 195.77 16.7602 195.7V195.629C16.7602 195.629 16.7602 195.629 16.8307 195.629C16.8307 195.559 16.8307 195.418 16.7602 195.348C16.9715 195.207 17.1829 195.137 17.2533 194.926ZM-1.00027 198.654C-1.14115 198.794 -0.929823 198.865 -1.2116 199.005C-1.35248 199.076 -1.63425 199.005 -1.49337 198.794C-1.2116 199.005 -1.14115 198.794 -1.00027 198.654ZM-0.64805 198.583C-0.64805 198.583 -0.648052 198.654 -0.718494 198.724C-0.718494 198.654 -0.718493 198.583 -0.64805 198.583ZM2.24012 195.84C2.381 195.77 2.381 195.84 2.381 195.911C2.31056 195.911 2.24012 195.911 2.24012 195.84ZM4.84651 197.739C4.77607 197.739 4.77607 197.739 4.84651 197.739C4.77607 197.739 4.84651 197.669 4.84651 197.669V197.739ZM5.26918 195.77C5.26918 195.84 5.26918 195.84 5.26918 195.84C5.19873 195.84 5.19873 195.77 5.26918 195.77ZM2.80366 195.77C2.94455 195.911 2.87411 196.122 2.94455 196.192C2.87411 196.192 2.87411 196.262 2.80366 196.262C2.73322 196.192 2.66278 196.122 2.66278 196.051C2.59233 195.981 2.59233 195.7 2.59233 195.7C2.52189 195.559 2.31056 195.7 2.16968 195.559C2.16968 195.489 2.73322 195.629 2.80366 195.77ZM-1.28204 195.981C-1.2116 196.262 -0.507164 197.106 -0.788937 197.458C-1.14115 197.88 -1.42293 197.388 -1.56381 197.106C-1.84558 196.544 -1.63426 196.473 -1.28204 195.981ZM-1.98647 199.216C-2.05691 199.287 -2.05691 199.357 -2.12736 199.427C-2.26824 199.357 -2.55002 199.076 -2.62046 199.076C-2.40913 198.865 -1.98647 198.935 -1.98647 199.216ZM-2.26824 198.161C-2.26824 198.372 -2.33869 198.302 -2.55001 198.372C-2.55001 198.161 -2.40913 198.161 -2.26824 198.161ZM-2.76135 196.051H-2.83179C-2.83179 195.84 -2.6909 195.84 -2.76135 196.051ZM-3.39533 197.177C-3.39533 197.247 -3.39533 197.317 -3.39533 197.317C-3.53622 197.458 -3.67711 197.528 -3.818 197.669C-3.88844 197.317 -3.60666 197.177 -3.39533 197.177ZM-4.24065 196.403C-4.17021 196.333 -4.17021 196.333 -4.17021 196.262C-4.17021 196.333 -4.17021 196.403 -4.24065 196.403C-4.17021 196.403 -4.17021 196.403 -4.24065 196.403ZM-4.31109 196.122C-4.31109 196.192 -4.3111 196.262 -4.24065 196.333C-4.3111 196.262 -4.31109 196.262 -4.31109 196.122ZM0.619925 196.755C0.619925 196.684 0.619925 196.684 0.619925 196.614C1.11303 196.895 0.619925 196.755 0.619925 196.755ZM0.972143 196.544C0.972143 196.403 0.901699 196.192 0.831257 196.122C0.901699 196.122 1.04259 196.122 1.11303 196.192C1.25392 196.262 0.972143 196.403 0.972143 196.544ZM2.31056 197.739C2.38101 197.81 2.38101 197.88 2.45145 197.88C2.52189 197.88 2.87411 197.739 2.94455 197.669C3.01499 197.739 3.08544 197.81 3.15588 197.88C3.22632 197.739 3.29677 197.317 3.15588 197.177C3.22632 197.036 3.29677 196.966 3.43765 196.895C3.43765 196.895 3.57854 196.895 3.71943 196.825C3.71943 196.966 3.64898 197.106 3.64898 197.317C3.71943 197.177 3.86031 197.106 3.93076 196.966C3.93076 197.247 3.78987 197.528 3.78987 197.739C3.71943 197.88 3.78987 198.021 3.78987 198.161L3.71943 198.232C3.71943 198.232 3.78987 198.302 3.78987 198.372V198.443C3.71943 198.513 3.64898 198.654 3.5081 198.724C3.36721 198.724 3.22632 198.583 3.15588 198.443C3.15588 198.372 3.08544 198.232 3.08544 198.161C3.08544 197.739 2.45145 198.021 2.31056 197.81C2.24012 197.81 2.24012 197.739 2.31056 197.739ZM5.76227 197.599C5.83272 197.599 5.90316 197.669 5.97361 197.669C6.04405 197.669 6.11449 197.739 6.25538 197.81C6.18493 197.88 6.18493 197.95 6.18493 198.021C5.9736 197.95 5.83272 197.739 5.76227 197.599ZM7.39127 197.106C7.25039 197.036 7.17994 196.966 7.17994 196.825C7.46172 196.544 8.02526 196.051 8.09571 196.614C8.09571 196.684 8.09571 196.825 8.09571 196.966C7.88438 197.177 7.67305 197.247 7.39127 197.106ZM11.0543 202.03C10.843 201.678 11.6179 201.397 11.7588 201.186C11.8292 200.975 11.8292 200.693 11.8996 200.412C12.1814 200.482 12.3927 200.553 12.6745 200.764C12.8154 200.834 12.8858 201.045 13.0267 201.045C12.8154 201.115 12.5336 201.256 12.5336 201.256C12.5336 201.537 12.2519 201.608 12.111 201.748C12.0405 201.819 11.6883 202.17 11.6883 202.17C11.477 202.241 11.4065 201.959 11.0543 202.03ZM12.745 203.085C12.6041 203.155 12.111 202.944 11.9701 202.803C11.9701 202.803 11.9701 202.803 12.0405 202.803C12.0405 202.733 11.9701 202.733 11.9701 202.733V202.663C12.2519 202.733 12.6041 202.733 12.6745 202.522C12.5336 202.452 12.3927 202.381 12.2519 202.381C12.3223 202.381 12.3223 202.311 12.3927 202.311C12.6745 202.17 12.8154 201.959 13.0267 202.381C13.1676 202.522 13.0972 203.014 12.745 203.085ZM14.3651 200.553C14.0129 200.693 14.0129 200.412 13.6607 200.342L13.7312 200.271C13.5903 200.271 13.2381 200.201 13.1676 200.06C13.2381 200.06 13.3085 200.06 13.3789 200.06C13.4494 200.06 13.8016 200.271 13.872 200.271C13.9425 200.271 13.9425 200.131 13.872 200.06H13.9425C14.1538 200.06 14.2947 199.849 14.4356 199.849C14.506 199.92 14.5765 199.99 14.5765 200.131C14.6469 200.201 14.5765 200.482 14.3651 200.553ZM13.5903 200.342C13.6607 200.342 13.6607 200.342 13.5903 200.342V200.342ZM14.8582 201.256L14.9287 201.186C14.9991 201.186 14.9287 201.186 14.8582 201.256ZM19.2962 198.443C19.6484 198.302 20.0006 198.232 20.3528 198.161C20.2824 198.583 19.5075 198.794 19.2962 198.443ZM20.1415 197.739C20.2119 197.739 20.3528 197.88 20.3528 197.95C20.071 197.81 20.1415 197.95 20.1415 197.739ZM23.3202 199.498C23.3202 199.498 23.1793 199.357 23.0385 199.287C23.1793 199.287 23.3202 199.216 23.3907 199.146C23.3907 199.146 23.3907 199.287 23.3202 199.498ZM23.9542 198.794C24.1656 199.005 24.236 198.794 24.4473 198.654C24.3064 198.794 24.5178 198.865 24.236 199.005C24.0951 199.146 23.7429 199.005 23.9542 198.794ZM26.3493 196.544C26.3493 196.403 26.2788 196.192 26.2084 196.122C26.2788 196.122 26.4197 196.122 26.4902 196.192C26.6311 196.262 26.3493 196.403 26.3493 196.544ZM28.1808 195.77C28.3921 195.981 28.1104 196.262 28.6035 196.262C28.6035 196.333 28.533 196.333 28.533 196.403C28.4626 196.403 28.3921 196.403 28.3217 196.403C28.1808 196.262 28.0399 196.122 28.0399 196.122C27.9695 196.051 27.9695 195.77 27.9695 195.77C27.899 195.629 27.6877 195.77 27.5468 195.629C27.5468 195.489 28.1104 195.629 28.1808 195.77ZM27.6173 195.84C27.7582 195.77 27.7581 195.84 27.7581 195.911C27.6877 195.911 27.6173 195.911 27.6173 195.84ZM28.9557 199.709C28.9557 199.568 28.8852 199.498 29.0261 199.357C28.9557 199.427 28.9557 199.568 28.9557 199.709ZM29.0966 197.739C29.0261 198.021 29.0966 198.232 29.0966 198.443C29.0261 199.005 28.3921 198.724 28.4626 198.161C28.4626 197.669 27.8286 198.021 27.6877 197.81C27.6173 197.669 27.9695 197.317 28.0399 197.247C28.1808 197.036 28.2513 196.895 28.3921 196.755C28.4626 196.755 28.4626 196.755 28.533 196.755C28.6035 196.755 28.7444 196.684 28.8148 196.614C29.2375 196.614 29.0966 196.895 29.0261 197.247C29.0966 197.106 29.2375 197.036 29.3079 196.895C29.2375 197.177 29.167 197.458 29.0966 197.739ZM44.8846 199.638C44.8846 199.638 44.8846 199.568 44.9551 199.568C44.9551 199.568 44.9551 199.568 44.8846 199.638ZM41.2216 200.201C41.1512 200.201 41.0807 200.271 41.0103 200.271C40.8694 200.271 40.7285 200.201 40.7285 200.06C40.9398 200.131 41.0807 199.99 41.292 199.99H41.3625C41.292 199.99 41.2216 200.131 41.2216 200.201ZM38.4039 199.146C38.3334 199.146 38.3334 199.216 38.263 199.216C38.263 199.146 38.1925 199.076 38.1925 199.005C38.3334 199.005 38.4039 198.935 38.6152 198.935C38.7561 198.935 38.897 198.935 39.1083 198.935C39.1083 199.005 39.1083 199.146 39.1787 199.216C38.9674 199.216 38.7561 199.287 38.7561 199.357C38.8265 199.146 38.6856 199.076 38.4039 199.146ZM35.9296 201.115C35.9296 201.045 35.9296 201.045 35.9296 201.115C35.8591 201.045 35.7887 201.045 35.7887 200.975C35.7887 200.904 35.7887 200.764 35.7887 200.693C35.9296 200.693 36 200.764 36.1409 200.764C36.0704 200.764 36.0704 200.834 36 200.904C35.9296 200.975 35.9296 201.115 36.0704 201.256C36.0704 201.256 36 201.186 35.9296 201.115ZM36.1409 201.326C36.2113 201.397 36.2113 201.397 36.1409 201.326V201.326ZM36.6428 199.779C36.5019 199.638 36.6428 199.498 36.7837 199.427C36.8541 199.498 36.8541 199.498 36.9246 199.568C36.8541 199.638 36.7837 199.709 36.6428 199.779ZM39.7423 200.623C39.4605 200.482 39.1787 200.412 38.897 200.553C38.9674 200.412 38.9674 200.342 39.1083 200.271C39.0379 200.271 38.897 200.271 38.8265 200.201C38.7561 200.131 38.7561 200.06 38.6152 199.99L38.5448 200.06C38.5448 199.99 38.5448 199.99 38.4743 199.92C38.4743 199.849 38.4743 199.849 38.4743 199.779C38.4039 199.779 38.3334 199.779 38.263 199.779C38.1925 199.779 38.1221 199.709 38.1221 199.709L38.1925 199.638C38.4039 199.638 38.5448 199.568 38.6152 199.427C38.4039 199.849 39.1083 199.99 39.3196 199.92C39.3901 200.131 39.6014 200.201 39.9536 200.201C39.8832 200.342 39.8127 200.482 39.7423 200.623Z" fill="white"/>
<path d="M38.4787 203.296C38.5492 202.874 38.4787 202.452 38.1969 202.03C37.9856 202.733 38.1265 203.225 38.4787 203.296Z" fill="white"/>
<path d="M34.3822 205.054C34.1709 205.124 33.8187 205.546 34.2414 205.617C34.5936 205.617 34.3118 205.195 34.664 205.195C34.664 205.054 34.5231 205.054 34.3822 205.054Z" fill="white"/>
<path d="M35.7188 204.351C36.1414 204.28 36.2119 204.21 36.0005 203.858C35.8596 203.929 35.7188 204.069 35.7188 204.351Z" fill="white"/>
<path d="M36.3641 204.702C36.6459 204.421 36.6459 204.28 36.3641 204.069C36.2849 204.28 36.2849 204.491 36.3641 204.702Z" fill="white"/>
<path d="M35.0849 203.929C35.0151 204.068 35.0151 204.138 35.1547 204.138C35.1547 204.068 35.2244 203.929 35.0849 203.929Z" fill="white"/>
<path d="M34.7344 205.195C34.805 205.336 34.9462 205.407 35.0874 205.336C35.0168 205.054 34.8756 205.124 34.7344 205.195Z" fill="white"/>
<path d="M29.8751 205.194C29.8046 205.476 30.2273 205.546 30.2977 205.335C30.5795 204.983 29.9455 204.913 29.8751 205.194Z" fill="white"/>
<path d="M30.2268 203.015L30.1564 202.944C30.0861 203.156 30.2268 203.015 30.2268 203.015Z" fill="white"/>
<path d="M31.988 206.39C31.9183 206.46 31.988 206.53 31.988 206.53C32.0578 206.39 32.0578 206.32 31.988 206.39Z" fill="white"/>
<path d="M32.7619 205.898C32.9028 205.757 33.1141 205.617 33.0437 205.335C32.9732 205.335 32.9028 205.406 32.8324 205.406C32.8324 205.617 32.6915 205.828 32.7619 205.898Z" fill="white"/>
<path d="M31.9883 206.883C32.0589 206.953 32.4119 207.094 32.4119 206.883C32.2001 206.812 32.1295 206.812 31.9883 206.883Z" fill="white"/>
<path d="M32.1289 208.149C32.1289 208.219 32.1993 208.149 32.1993 208.078C32.1993 208.078 32.1993 208.078 32.1289 208.149Z" fill="white"/>
<path d="M41.0809 204.14C41.0112 204.14 41.0112 204.209 40.9414 204.209C41.0809 204.209 41.1507 204.209 41.0809 204.14Z" fill="white"/>
<path d="M40.0978 204.351C39.6047 204.351 39.6752 205.124 40.0978 205.124C40.6614 205.124 40.5909 204.421 40.9431 204.14C40.6614 203.999 40.0978 203.929 40.0978 204.351Z" fill="white"/>
<path d="M42.2086 203.366C42.1381 203.436 41.8563 203.999 42.2086 203.788C42.4199 203.577 42.3494 203.507 42.2086 203.366Z" fill="white"/>
<path d="M42.8433 203.366C42.2797 203.718 43.9704 203.929 43.4068 203.085C43.2659 203.155 43.0546 203.225 42.8433 203.366Z" fill="white"/>
<path d="M41.4356 203.929C41.5765 203.647 41.7878 203.366 41.7878 203.085C41.8582 202.803 41.5765 202.522 41.5765 202.241C41.0834 202.733 41.1538 203.366 41.4356 203.929Z" fill="white"/>
<path d="M42.2789 206.32C42.6311 206.672 42.7016 206.109 42.5607 205.898C42.6311 205.687 41.9267 205.968 42.2789 206.32Z" fill="white"/>
<path d="M38.7587 203.577C38.5474 203.436 38.477 203.647 38.477 203.858C38.2656 203.858 38.2656 203.999 38.2656 204.139C38.477 204.069 38.477 203.999 38.477 203.858C38.477 203.928 38.5474 203.999 38.5474 203.999C38.8292 204.35 39.0405 203.717 38.7587 203.577Z" fill="white"/>
<path d="M39.0391 205.054C39.0391 205.124 39.0391 205.194 39.0391 205.263C39.1088 205.263 39.1088 205.263 39.1786 205.263C39.2484 205.124 39.2484 205.124 39.0391 205.054Z" fill="white"/>
<path d="M45.0983 202.452C45.0279 202.733 45.0279 202.874 44.7461 202.944C45.0279 202.944 45.0279 203.014 44.9574 203.225C45.0279 203.155 45.0983 203.085 45.1688 203.014C45.3096 202.944 45.4505 202.944 45.5914 202.874C45.8732 202.803 46.155 202.733 46.155 202.381C45.9436 202.452 45.8027 202.663 45.5914 202.663C45.3096 202.733 45.3096 202.663 45.0983 202.452Z" fill="white"/>
<path d="M48.6914 203.858C48.8326 204 48.9738 204.282 49.115 203.929C49.2562 203.717 48.8326 203.858 48.6914 203.858Z" fill="white"/>
<path d="M51.657 202.733C51.4457 202.874 51.3753 203.085 51.2344 203.296C51.7891 203.436 51.9388 202.592 51.657 202.733Z" fill="white"/>
<path d="M51.0943 204.562C51.0238 204.562 50.9534 204.562 50.8125 204.632C51.0238 205.054 51.3761 205.124 51.5169 204.632C51.6578 204.28 51.4465 203.788 51.2352 203.507C51.3056 203.929 50.8741 204.21 51.0943 204.562Z" fill="white"/>
<path d="M60.8164 202.803C60.9573 202.944 61.0982 203.014 61.3095 202.803C61.1686 202.522 61.0982 202.522 60.8164 202.803Z" fill="white"/>
<path d="M55.3906 202.311C55.3906 202.381 55.602 202.522 55.9542 202.522C55.8133 202.522 55.5315 203.014 56.1655 202.733C56.1655 202.663 56.0951 202.592 56.0246 202.522C56.3768 202.592 56.729 202.592 56.7995 202.381C56.3768 202.17 55.8837 202.452 55.3906 202.311Z" fill="white"/>
<path d="M64.6914 204.421C64.6914 204.492 64.6914 204.492 64.8335 204.492C64.8335 204.421 64.7625 204.421 64.6914 204.421Z" fill="white"/>
<path d="M62.4336 202.944C62.7858 202.874 63.138 203.225 63.4902 203.155C63.0676 202.803 62.7858 202.592 62.4336 202.944Z" fill="white"/>
<path d="M39.3203 204.421C39.3203 204.492 39.3203 204.492 39.4624 204.492C39.4624 204.421 39.3914 204.421 39.3203 204.421Z" fill="white"/>
<path d="M37.4193 202.733C37.4193 202.663 37.3488 202.592 37.2784 202.592C37.6306 202.663 37.9828 202.663 38.0533 202.452C37.6306 202.17 37.1375 202.452 36.7148 202.381C36.7148 202.452 36.9262 202.592 37.2784 202.592C37.1375 202.592 36.9966 202.874 37.208 202.874C37.1375 202.874 37.1375 202.944 37.0671 202.944C37.4193 202.874 37.7715 203.225 38.1237 203.155C37.842 202.874 37.6306 202.733 37.4193 202.733Z" fill="white"/>
</g>
</g>
</svg>
